HIERARCHY
ROOT Hips
{
	OFFSET -14.64140 90.27770 -84.91600
	CHANNELS 6 Xposition Yposition Zposition Zrotation Xrotation Yrotation
	JOINT Spine
	{
		OFFSET 0.00000 13.20850 -1.60436
		CHANNELS 3 Zrotation Xrotation Yrotation
		JOINT Spine1
		{
			OFFSET 0.00000 8.61716 0.00000
			CHANNELS 3 Zrotation Xrotation Yrotation
			JOINT Spine2
			{
				OFFSET 0.00000 8.61717 0.00000
				CHANNELS 3 Zrotation Xrotation Yrotation
				JOINT Spine3
				{
					OFFSET 0.00000 8.61717 0.00000
					CHANNELS 3 Zrotation Xrotation Yrotation
					JOINT Neck
					{
						OFFSET 0.00000 11.07920 1.10792
						CHANNELS 3 Zrotation Xrotation Yrotation
						JOINT Neck1
						{
							OFFSET 0.00000 7.08032 0.00000
							CHANNELS 3 Zrotation Xrotation Yrotation
							JOINT Head
							{
								OFFSET 0.00000 7.08031 0.00000
								CHANNELS 3 Zrotation Xrotation Yrotation
								End site
								{
									OFFSET 0.00000 0.00000 0.00000
								}
							}
						}
					}
					JOINT RightShoulder
					{
						OFFSET -0.01000 7.91373 5.19711
						CHANNELS 3 Zrotation Xrotation Yrotation
						JOINT RightArm
						{
							OFFSET -18.41580 0.00000 0.00000
							CHANNELS 3 Zrotation Xrotation Yrotation
							JOINT RightForeArm
							{
								OFFSET -29.11090 0.00000 0.00000
								CHANNELS 3 Zrotation Xrotation Yrotation
								JOINT RightHand
								{
									OFFSET -24.65040 0.00000 0.00000
									CHANNELS 3 Zrotation Xrotation Yrotation
									JOINT RightHandThumb1
									{
										OFFSET -5.35114 -0.85590 3.97906
										CHANNELS 3 Zrotation Xrotation Yrotation
										JOINT RightHandThumb2
										{
											OFFSET -4.52789 0.00000 0.00000
											CHANNELS 3 Zrotation Xrotation Yrotation
											JOINT RightHandThumb3
											{
												OFFSET -2.46976 0.00000 0.00000
												CHANNELS 3 Zrotation Xrotation Yrotation
												End site
												{
													OFFSET 0.00000 0.00000 0.00000
												}
											}
										}
									}
									JOINT RightHandIndex1
									{
										OFFSET -14.26970 0.00000 2.88139
										CHANNELS 3 Zrotation Xrotation Yrotation
										JOINT RightHandIndex2
										{
											OFFSET -5.48836 0.00000 0.00000
											CHANNELS 3 Zrotation Xrotation Yrotation
											JOINT RightHandIndex3
											{
												OFFSET -3.01859 0.00000 0.00000
												CHANNELS 3 Zrotation Xrotation Yrotation
												End site
												{
													OFFSET 0.00000 0.00000 0.00000
												}
											}
										}
									}
									JOINT RightHandMiddle1
									{
										OFFSET -14.26970 0.00000 -0.09147
										CHANNELS 3 Zrotation Xrotation Yrotation
										JOINT RightHandMiddle2
										{
											OFFSET -6.17441 0.00000 0.00000
											CHANNELS 3 Zrotation Xrotation Yrotation
											JOINT RightHandMiddle3
											{
												OFFSET -3.56743 0.00000 0.00000
												CHANNELS 3 Zrotation Xrotation Yrotation
												End site
												{
													OFFSET 0.00000 0.00000 0.00000
												}
											}
										}
									}
									JOINT RightHandRing1
									{
										OFFSET -12.69180 0.00000 -3.06433
										CHANNELS 3 Zrotation Xrotation Yrotation
										JOINT RightHandRing2
										{
											OFFSET -5.62556 0.00000 0.00000
											CHANNELS 3 Zrotation Xrotation Yrotation
											JOINT RightHandRing3
											{
												OFFSET -3.56744 0.00000 0.00000
												CHANNELS 3 Zrotation Xrotation Yrotation
												End site
												{
													OFFSET 0.00000 0.00000 0.00000
												}
											}
										}
									}
									JOINT RightHandPinky1
									{
										OFFSET -11.11390 0.00000 -6.03719
										CHANNELS 3 Zrotation Xrotation Yrotation
										JOINT RightHandPinky2
										{
											OFFSET -4.52789 0.00000 0.00000
											CHANNELS 3 Zrotation Xrotation Yrotation
											JOINT RightHandPinky3
											{
												OFFSET -2.46976 0.00000 0.00000
												CHANNELS 3 Zrotation Xrotation Yrotation
												End site
												{
													OFFSET 0.00000 0.00000 0.00000
												}
											}
										}
									}
								}
							}
						}
					}
					JOINT LeftShoulder
					{
						OFFSET 0.01000 7.91373 5.19711
						CHANNELS 3 Zrotation Xrotation Yrotation
						JOINT LeftArm
						{
							OFFSET 18.41580 0.00000 0.00000
							CHANNELS 3 Zrotation Xrotation Yrotation
							JOINT LeftForeArm
							{
								OFFSET 29.11090 0.00000 0.00000
								CHANNELS 3 Zrotation Xrotation Yrotation
								JOINT LeftHand
								{
									OFFSET 24.65040 0.00000 0.00000
									CHANNELS 3 Zrotation Xrotation Yrotation
									JOINT LeftHandThumb1
									{
										OFFSET 5.35114 -0.85590 3.97906
										CHANNELS 3 Zrotation Xrotation Yrotation
										JOINT LeftHandThumb2
										{
											OFFSET 4.52789 0.00000 0.00000
											CHANNELS 3 Zrotation Xrotation Yrotation
											JOINT LeftHandThumb3
											{
												OFFSET 2.46977 0.00000 0.00000
												CHANNELS 3 Zrotation Xrotation Yrotation
												End site
												{
													OFFSET 0.00000 0.00000 0.00000
												}
											}
										}
									}
									JOINT LeftHandIndex1
									{
										OFFSET 14.26970 0.00000 2.88139
										CHANNELS 3 Zrotation Xrotation Yrotation
										JOINT LeftHandIndex2
										{
											OFFSET 5.48836 0.00000 0.00000
											CHANNELS 3 Zrotation Xrotation Yrotation
											JOINT LeftHandIndex3
											{
												OFFSET 3.01859 0.00000 0.00000
												CHANNELS 3 Zrotation Xrotation Yrotation
												End site
												{
													OFFSET 0.00000 0.00000 0.00000
												}
											}
										}
									}
									JOINT LeftHandMiddle1
									{
										OFFSET 14.26970 0.00000 -0.09147
										CHANNELS 3 Zrotation Xrotation Yrotation
										JOINT LeftHandMiddle2
										{
											OFFSET 6.17440 0.00000 0.00000
											CHANNELS 3 Zrotation Xrotation Yrotation
											JOINT LeftHandMiddle3
											{
												OFFSET 3.56744 0.00000 0.00000
												CHANNELS 3 Zrotation Xrotation Yrotation
												End site
												{
													OFFSET 0.00000 0.00000 0.00000
												}
											}
										}
									}
									JOINT LeftHandRing1
									{
										OFFSET 12.69180 0.00000 -3.06433
										CHANNELS 3 Zrotation Xrotation Yrotation
										JOINT LeftHandRing2
										{
											OFFSET 5.62556 0.00000 0.00000
											CHANNELS 3 Zrotation Xrotation Yrotation
											JOINT LeftHandRing3
											{
												OFFSET 3.56744 0.00000 0.00000
												CHANNELS 3 Zrotation Xrotation Yrotation
												End site
												{
													OFFSET 0.00000 0.00000 0.00000
												}
											}
										}
									}
									JOINT LeftHandPinky1
									{
										OFFSET 11.11390 0.00000 -6.03719
										CHANNELS 3 Zrotation Xrotation Yrotation
										JOINT LeftHandPinky2
										{
											OFFSET 4.52789 0.00000 0.00000
											CHANNELS 3 Zrotation Xrotation Yrotation
											JOINT LeftHandPinky3
											{
												OFFSET 2.46976 0.00000 0.00000
												CHANNELS 3 Zrotation Xrotation Yrotation
												End site
												{
													OFFSET 0.00000 0.00000 0.00000
												}
											}
										}
									}
								}
							}
						}
					}
					JOINT pCube4
					{
						OFFSET 0.00000 10.91090 1.10792
						CHANNELS 3 Zrotation Xrotation Yrotation
						End site
						{
							OFFSET 0.00000 0.00000 0.00000
						}
					}
				}
			}
		}
	}
	JOINT RightUpLeg
	{
		OFFSET -9.98441 0.00000 0.00000
		CHANNELS 3 Zrotation Xrotation Yrotation
		JOINT RightLeg
		{
			OFFSET 0.00000 -42.11790 0.00000
			CHANNELS 3 Zrotation Xrotation Yrotation
			JOINT RightFoot
			{
				OFFSET 0.00000 -45.00020 -0.00001
				CHANNELS 3 Zrotation Xrotation Yrotation
				JOINT RightForeFoot
				{
					OFFSET 0.00000 -3.74820 0.00000
					CHANNELS 3 Zrotation Xrotation Yrotation
					JOINT RightToeBase
					{
						OFFSET 0.00000 0.06325 14.43120
						CHANNELS 3 Zrotation Xrotation Yrotation
						End site
						{
							OFFSET 0.00000 0.00000 0.00000
						}
					}
				}
			}
		}
	}
	JOINT LeftUpLeg
	{
		OFFSET 9.98441 0.00000 0.00000
		CHANNELS 3 Zrotation Xrotation Yrotation
		JOINT LeftLeg
		{
			OFFSET 0.00000 -42.11800 0.00000
			CHANNELS 3 Zrotation Xrotation Yrotation
			JOINT LeftFoot
			{
				OFFSET 0.00000 -45.00070 0.00000
				CHANNELS 3 Zrotation Xrotation Yrotation
				JOINT LeftForeFoot
				{
					OFFSET 0.00000 -3.74824 0.00000
					CHANNELS 3 Zrotation Xrotation Yrotation
					JOINT LeftToeBase
					{
						OFFSET 0.00000 0.06325 14.43110
						CHANNELS 3 Zrotation Xrotation Yrotation
						End site
						{
							OFFSET 0.00000 0.00000 0.00000
						}
					}
				}
			}
		}
	}
}
MOTION
Frames: 4
Frame Time: 0.050000
5.3021427387301174e-05 -0.013932088663317422 0.007898493791791089 0.008521470577290345 -0.008251076872221893 -0.0452613567397873 -2.178929280997361 1.0132997323448731 -0.8496829275091151 -1.1500856489118634 3.870708868024236 0.34504888899845 -1.1132061128441768 -1.9837759701676252 -1.990820100795886 -0.0045976373160384176 0.5795408045560949 -0.9260703538909529 -1.0560120388217362 13.439223505622843 2.6600238434815764 0.03603096974883379 -0.18173762091359372 5.608344015119643 -0.6638960927927297 -15.411960489269124 0.5205791898005596 -4.9314947003014575 1.721143202030732 -16.014415402163156 72.99879077023152 16.618640365941477 -4.730393332368418 4.935955999931054 -1.9773438630406917 43.094598186475935 20.22549613651384 -0.13201076481852708 -2.533662360467396 4.480395711807111 -0.08530331371164449 -1.6311717614630756 0.00021103426338514288 -0.0492030401290374 -56.263793648296826 -0.007547282923104852 -0.04475941406534561 -56.21975880244407 -38.81694719756155 0.015204710199827703 0.04752317545069078 -0.04662298413562613 -0.034748982542217116 0.011353630445968106 0.008364665634682845 -0.04964374881902323 0.010450110472709023 -36.68308783397279 -0.004109564098421565 -0.02047193526473234 -0.021191480823938524 0.046113058381646026 -0.03314158810508431 0.005135517217934197 -0.04204410351866994 0.021008836900667575 -19.7121542573474 -0.0027175427681278993 0.0016109435754273669 -0.0020582630458886005 0.030249327318827863 -0.016457955549954835 0.010037225454973337 -0.013933450920959559 -0.04018693805249657 24.00962611644234 -0.016647223527956525 -0.020172944416255414 28.857336638486625 0.03463036140901751 0.049057731375972795 28.8449700809277 -0.0021215123427657276 0.00032232392928256535 8.218147174646091 1.7089230077952384 14.166996776727592 -69.11112452534361 18.506066927259 -10.852436002667336 -1.6529870556460955 -17.684622619823816 -61.910633529276204 -6.536207936392859 -0.5033175147795119 1.4752774939130036 -0.4512089710699491 0.06728605865030438 -8.156346863281984 -0.016478007687804996 -0.03923593283559608 44.56882272090498 -0.0451738456740363 -0.048624616473463854 44.58812868007182 12.468313250629873 -0.03141596958303567 -0.011638102434462807 0.018394644265708197 0.01930952055603941 0.042324967220369145 0.001041564917096738 -0.03080101533393794 0.0021528921154306156 11.08033328661522 0.010170908047595307 0.038478010077134785 -0.014408643902707862 -0.008873553311408731 -0.04365154432899312 0.02131065325576089 0.00605718698592566 0.030075643058634135 4.800009547084299 0.028178781472024437 -0.03231972008897472 0.044059382657069754 0.011089190518505609 0.02405286929695892 -0.04615659556101762 0.01410342783992491 -0.002317140683424038 -5.575833245020949 -0.020896983381462855 -0.0034096018674354494 -6.715715847864732 -0.015837802054278573 -0.007378810111847563 -6.700840219174385 -0.028985085420745318 0.04393067262734739 0.018117894512516875 -0.03401841771882313 0.01318779228632349 8.085669230726955 3.4561699803993653 -19.22148682544019 -0.03271281926843227 10.437739579781512 0.007263658691874797 -5.659849319983938 -15.709390173488284 3.2156218972694814 -0.03933814115683906 -0.0018007768023516125 -0.02199699511105999 -0.02231717737967026 4.698181986991738 -0.020224936974279992 12.432457365619854 -8.247210535590176 6.8585106606431205 0.028313369004388307 46.3664171836448 0.008763924835230481 -4.3257193169715515 -14.759695247089907 -3.827732157882705 -0.0014550448312283092 0.028562100302503297 0.032790443995629526 -0.03743594832205098 -10.72572521547629 -0.01947142183346785 
-0.045317954903304446 0.008707377600586543 -0.006118616293422148 -0.04929891146160999 0.038684065738918666 0.01695940240330256 -2.263174734377785 1.0467884545622224 -0.8600774317108014 -1.1331830918466919 3.8929624725276164 0.3602483106046548 -1.1415150758466543 -1.855354941773819 -1.8343103903244242 -0.02025265077437398 0.5704951938643501 -0.8866677339153334 -1.1214756794413168 13.283957496179067 2.9084536427007137 -0.009908654862463732 -0.2597278335374767 6.102250964802432 -0.7911184486793961 -15.519726312685558 0.5222678120913257 -4.6639353162589865 1.671574296038675 -16.05230483622236 73.07543125495526 17.2583412957985 -5.5777117451748595 5.226779249583582 -2.077234632356612 42.36980292354647 20.199809375547655 -0.09842646724716192 -2.6336111834501983 4.569915688616724 -0.13533224102593133 -1.6048458544286583 -0.007716179120290805 -0.02403866268845816 -56.20648930731026 -0.03312753908305849 0.01935216206453288 -56.20763005606626 -38.76162480863105 -0.016650247951057576 0.004995909707844976 -0.007540224862808383 -0.001082467526146547 -0.049347665096720374 -0.03667238820878563 -0.02739801252898601 0.04220712439258442 -36.7321349767958 0.015793370549614414 0.02877038663122786 -0.04057741376762902 -0.03887577676323868 -0.01727762530543945 -0.030533136841918315 -0.03945738940012995 0.013182887400928711 -19.768898448699396 -0.021168114257762643 0.015495268515398052 0.0062294308927233494 0.0026802739142452706 -0.01826146338661079 0.0274208312734448 0.02757251804233585 0.009942061737477938 24.045832955499677 -0.046568673351499904 0.028881829820866046 28.911674670557183 -0.028681852210943135 0.04397019191830216 28.846484157000987 -0.01720528694758895 -0.049055827574156274 7.863616739764053 1.6899184084666488 14.359983482490886 -70.20860276884768 19.346956753652986 -8.770878272047199 -2.025793113468197 -17.34080691420887 -61.86756342263029 -7.059231655193992 -0.6898148562138681 1.6019019100111207 -0.4415123962129845 0.055232648696006435 -8.105839016970133 -0.008725507352431652 0.013710941681440552 44.59273747272737 0.0019164182124854845 0.03677523545109074 44.55218785694499 12.48775962151259 0.032157108433080124 -0.005567531531311439 -0.03949238490504202 -0.036907692616722755 -0.032373464315936844 -0.014318049213367776 0.011420714175734106 -0.021443884467708525 11.14728761793332 0.026454914098940935 0.035152901406692354 -0.01073592827304323 0.034763617858411984 -0.022588701793986962 0.045413858928247654 0.029123672753719715 0.01948066491660097 4.782321084144594 0.03059199363005596 -0.03552701701641792 -0.020130755436510443 -0.005249356933878305 0.010602299040685494 -0.007638393367206762 -0.0241772882582818 0.038591381870247875 -5.567499850178944 0.005294916618336105 -0.022884880182230505 -6.716745542213141 0.03940730402094827 0.013452008284592903 -6.681073527740843 -0.03982801475825543 -0.041527336549024484 -0.010969920297971164 -0.03542034460389132 0.031001544068591357 7.998790146350884 3.5041492041980082 -19.212671798450838 0.02186498359019026 10.443493985058302 0.019151356795752892 -5.624260699297387 -15.623173507775101 3.166194413737777 0.048835091158565075 0.03829431049226154 0.015324339248712153 -0.03969577285762634 4.704380103364119 -0.033641176566799456 12.437689637913895 -8.25252086142002 6.90747293029346 0.020755602497002874 46.36407358193489 0.010156190700294254 -4.359377565823844 -14.763676738901289 -3.8518318044799367 0.03561142256353026 -0.039240776270667965 -0.03911070073566018 0.04050384582749053 -10.714031967519896 -0.0027908756825580925 
-0.012600064801768288 0.0006816067735977254 0.025299762433921846 0.01730022989787548 -0.032992266822762004 0.011289781878438543 -2.146039673643584 1.092301880751617 -0.9060117981654486 -1.135605354063082 3.9046882818592286 0.3667492988280637 -1.1068240146688333 -1.8530888480248415 -1.7809428726874574 -0.0420767259528973 0.5907624279722326 -0.9183987909646601 -1.1596696044163397 13.10624083659979 3.022930302603636 -0.08309885402367716 -0.3144708182698736 6.466082047267692 -0.9027322467542825 -15.5852080029998 0.5689971948392875 -4.447805917733041 1.5816991664873365 -16.138110773098948 73.06654442529134 17.995668760047387 -6.321821263375602 4.914970516543526 -2.100543878955829 41.69543498122267 20.063192606491832 -0.06458629290079308 -2.8221788068383047 4.485687897331739 -0.16114977555325435 -1.5926384460552787 0.01352305290228465 -0.023138955866166086 -56.25968938953415 -0.024337094338593584 0.020086729859205257 -56.206183099669836 -38.797344853312666 -0.01685887793930202 -0.023025228945096354 -0.02647550367600634 -0.005579479951547682 -0.009815292902751979 -0.02447762312337503 0.010146355402394915 -0.022747636353843543 -36.72789501121037 0.0007772978239112241 0.02920437276819499 -0.04461479432365019 -0.008789169667205209 0.002736480912554419 0.02292069232890421 0.04834811353500808 -0.03189864108067386 -19.74370896994588 0.012466521632755807 0.019860116246948365 0.032857345076338064 -0.01125281913797078 0.03317519481947462 0.0355259621951209 0.0349671479721382 -0.04396001675151434 24.085633432219616 -0.041086967313006484 -0.03871256160088007 28.844376045352938 0.030809066700821203 0.03585890672951163 28.831647705838698 0.010053250760555717 -0.024162693736868267 7.84924669461424 1.6656816310172242 14.425068661504886 -70.41385305782494 19.772607480560357 -8.374838005709112 -0.1494562739158307 -18.020418447452887 -64.35367815132504 -6.767565265458646 -1.0671299656752216 1.5954113493542383 -0.4935612981433896 0.038319893151102 -8.09718790433129 -0.036959410653001776 -0.02991902628805456 44.586165267066434 0.007652316990430492 0.01963325985031192 44.53051775949417 12.42713423086461 -0.0025048165412237234 0.0333830630906111 -0.01216560651980174 -0.03659796746577683 -0.04630694069587755 -0.006004672750942192 -0.00658383274523632 -0.007369337217005607 11.091179203336962 0.049468799786425974 -0.04502060221189989 -0.03516203771526574 0.018256940293944944 0.03617439497602662 0.046361988906761784 -0.0270263065244756 -0.005356875938039373 4.811296665084569 -0.02873275080767026 0.009871594825826759 -0.04732483822048438 -0.0021336064905512144 -0.005512934703534531 -0.002186693627372438 0.027137702747372226 0.045833467084730524 -5.60825749291063 0.006367543866070223 -0.03476776400085701 -6.744155152065751 0.04703832747416588 -0.0009225328638862543 -6.699880266084979 -0.011258055577114805 -0.011404303745807542 0.039605533227824924 -0.044559472020787826 0.04851142332568212 8.066626128713992 3.5136993059659285 -19.252863761211902 0.036002800385921824 10.359143327172347 0.0020468969809712932 -5.639781360910613 -15.68575264899944 3.188714462924277 0.016924879687573606 0.0033826896509925376 0.0019795120411396625 -0.013416444101976913 4.7132526132119255 -0.019476789882444178 12.419332581362161 -8.265432519907407 6.833641233876515 0.034332985669630375 46.411104170197746 0.03536474122871243 -4.332159500176791 -14.744668241360946 -3.8269757038748535 0.029791119951623903 -0.008379512793160963 0.0033072712988356087 -0.03255824787407764 -10.770032965516506 -0.010224226963036924 
0.026915037275494387 -0.011335064296471931 0.0049181974076840645 0.004011945372020517 -0.040546745769117924 -0.002667826920466537 -2.1129672798393773 1.1100119232367907 -0.8433498393983109 -1.1140988470517261 3.964606754478375 0.39271812175010007 -1.1366036130769892 -1.8299534477400081 -1.8541509004351593 -0.0002104023544908032 0.5509599839114808 -0.9281052230835943 -1.222340388268434 13.099101072721778 3.0720519271296265 -0.052282992832855986 -0.34537427315894836 6.517986368470475 -0.8559581345041007 -15.622909330061765 0.5846574464157708 -4.403789339871782 1.5386992466113734 -16.057924860936986 72.85178136119714 18.114267621270095 -6.387523809953923 5.19069499481668 -1.9994223051373956 42.24669480947259 20.021418581299383 -0.11568297634803705 -2.940346366829035 4.551440555286186 -0.10439160658860491 -1.591441870871364 -0.03299394008351003 0.014711971594018025 -56.22746842263609 -0.0019835309389735164 0.036461605930032746 -56.2425263047165 -38.79104070578571 -0.033180444940068006 -0.0215200734632953 -0.019273337639203143 0.0004302409978801121 -0.04409659683945876 -0.04458633483676715 0.015056664631609987 0.034594425188795984 -36.72255916332914 0.01904944261816964 -0.02863609818766244 -0.021660021596586945 -0.0024869824981062494 0.049733549303625224 -0.012868599471908547 0.0289716413253395 -0.01181941046321741 -19.77473037639715 -0.018644637222194768 0.008698072772486704 0.0481065777762771 -0.01099567682982819 -0.036312231442916794 -0.04736365262792449 -0.022869711079522678 0.025846602985375625 24.044815453350946 0.031615700349471636 -0.028862398699325255 28.85188073870222 -0.041229543335324866 -0.008688056518181084 28.86670735524371 -0.015355084547335066 -0.026065902360655802 7.888730332464631 1.6537893911342847 14.399998105681627 -70.07546866545776 19.5702469938707 -8.984327314853942 0.9031914689482667 -18.329909843449947 -67.41494387352415 -6.3218819349667275 -1.2836840054633047 1.4379618766060736 -0.4843073699434101 0.06565401522863404 -8.14244280874679 -0.04102533507648623 0.0008628126766055065 44.61305380100542 -0.044668707518784496 0.024710539850250464 44.54670626752909 12.469533125324693 0.020700886953336273 -0.0026694349690669266 -0.0471568360367233 -0.03195060503464047 -0.021684174483492257 0.011190312666484336 -0.024735228307802223 -0.0284443449849897 11.094323726067563 -0.008502379909364026 0.019747965920501126 0.013095708005265341 -0.03474044321664147 -0.021208443290505412 0.03102924200651441 0.03268978013783436 -0.029479515120889328 4.793444662200043 -0.005214644575915353 0.045885183589612216 0.036265071101998746 -0.020624411092924483 -0.03297634362329128 0.017384648103430336 0.04598579177156177 0.03452156616038649 -5.577308578291317 -0.02663627917561043 0.01325341749897578 -6.746755917996131 -0.024913983347109557 -0.005271522895997568 -6.71508176079477 -0.002273507837029914 0.019091141328532513 0.01204576406808451 -0.0015004556815444484 -0.03813928145345332 8.027350071924229 3.5426954073359127 -19.177001879816263 0.028119837687605585 10.39650288013024 -0.0235257239749968 -5.662431865441917 -15.66883465475738 3.178594290390422 0.02661444001969473 -0.01178128289068494 -0.017649269527652448 -0.011152232207368842 4.67588296374595 0.006991301375148181 12.411706711428145 -8.243230996790055 6.8735499832176865 -0.03465200970119284 46.37531788082512 0.030459688951937347 -4.354217380285436 -14.757686427546773 -3.872163928113054 -0.01660275692523954 -0.01328408329425545 0.04844279907950854 -0.037958695921881454 -10.72619200903436 -0.025016371145178004 
